<svg width="114" height="114" viewBox="0 0 114 114" fill="none" xmlns="http://www.w3.org/2000/svg">
<g id="ara-4160-logo-svg-vector 21" clip-path="url(#clip0_0_130)">
<g id="Group">
<path id="Vector" fill-rule="evenodd" clip-rule="evenodd" d="M63.8599 43.8644C68.7474 40.7453 72.9589 36.6378 72.9589 30.451C72.9589 25.6161 70.1509 19.4807 60.0653 19.4807H39.1077V61.9572H50.1868V29.047H55.0223C56.9976 29.047 60.377 28.8394 60.377 31.6983C60.377 35.7016 53.4621 39.705 50.5506 41.9405C54.7621 51.4547 66.6017 70.8037 76.8937 73.5484L76.9043 62.3185C72.1209 56.755 67.1358 50.3636 63.8599 43.8644ZM36.5522 79.5922C36.3446 79.4627 36.3358 79.2805 36.3009 79.0735L35.7893 76.612L35.079 74.3327C34.8968 73.8998 34.8448 73.665 34.3338 73.665C33.9269 73.665 33.8571 73.83 33.6146 74.1245L32.5311 75.6149L30.6948 78.899C30.5215 79.2551 30.5038 79.4201 30.14 79.6188C30.0099 79.688 29.9318 79.7667 29.9318 79.9133C29.9318 80.1824 30.0271 80.1215 30.114 80.1387H31.5872C31.6736 80.1387 31.8126 80.2079 31.8126 79.8613C31.8126 79.6017 31.4228 79.6614 31.4228 79.3243C31.4228 79.0901 31.8297 78.3271 31.9776 78.0592H34.4817L34.5597 78.5353C34.5857 78.7435 34.6378 79.0735 34.6378 79.2628C34.6378 79.5064 34.6029 79.5224 34.3864 79.6188C34.2563 79.6803 34.17 79.74 34.17 79.8867C34.17 80.1132 34.3521 80.1387 34.5426 80.1387H36.1891C36.4055 80.1387 36.735 80.1558 36.735 79.8441C36.7338 79.7134 36.6557 79.6708 36.5522 79.5922ZM32.3236 77.3744L33.7708 75.0181C34.0824 75.771 34.2557 76.5777 34.3681 77.3744H32.3236ZM37.8321 77.1668C37.8321 76.7682 37.4163 76.916 37.4163 76.6552C37.4163 76.4393 37.728 76.3352 37.8841 76.266C38.1443 76.1531 38.7074 75.9023 38.9759 75.9023C39.2532 75.9023 39.3656 76.0584 39.3656 76.3352C39.3656 76.612 39.2615 77.0804 39.2095 77.3578L39.0451 78.1639C39.0102 78.3798 38.941 78.7263 38.941 78.9517C38.941 79.1687 39.019 79.4207 39.2875 79.4207C39.7382 79.4207 40.0676 78.64 40.1889 78.2934C40.4231 77.6097 40.5183 77.0112 40.6307 76.2743C40.6916 75.9195 40.882 75.9715 41.1765 75.9715H41.5752C41.7313 75.9715 42.0341 75.9277 42.0258 76.2743L41.8354 77.2886L41.6361 78.9091C41.6361 79.1865 41.7833 79.4461 42.0779 79.4461C42.771 79.4461 43.2045 78.1722 43.2045 77.6174C43.2045 77.0804 42.6409 77.1934 42.6409 76.5777C42.6409 76.2566 42.8491 75.9017 43.2045 75.9017C43.7676 75.9017 43.8628 76.7244 43.8628 77.149C43.8628 77.7996 43.6114 78.527 43.2826 79.0818C42.9011 79.7578 42.3552 80.2694 41.532 80.2694C40.9252 80.2694 40.3012 79.9056 40.3012 79.2285C40.3012 79.0552 40.3273 78.8914 40.3622 78.7258C40.0848 79.4721 39.5217 80.2688 38.6553 80.2688C38.3868 80.2688 38.0574 80.1381 37.8498 79.9731C37.6156 79.7838 37.5115 79.5401 37.5115 79.2373C37.5115 78.9428 37.6156 78.4401 37.6759 78.1367L37.8321 77.1668ZM48.7396 78.986C48.7396 78.4661 49.0691 76.8373 49.2074 76.2909C49.2684 76.0401 49.1034 75.9017 48.9732 75.9017C48.6959 75.9017 48.2801 76.2311 48.0725 76.4216C47.8472 76.0578 47.4397 75.9017 47.0239 75.9017C45.6293 75.9017 44.4418 77.2188 44.4418 78.5968C44.4418 79.4976 44.9622 80.2694 45.9239 80.2694C46.6513 80.2694 47.1978 79.7749 47.5183 79.1421L47.4574 79.8364C47.4574 80.0618 47.5698 80.2694 47.8129 80.2694C48.056 80.2694 48.6101 80.0097 48.8443 79.8962C48.9916 79.8358 49.2772 79.74 49.2772 79.5325C49.2766 79.203 48.7396 79.4721 48.7396 78.986ZM47.2664 78.7435C47.1103 79.0552 46.8069 79.5325 46.4082 79.5325C45.9665 79.5325 45.8535 79.0297 45.8535 78.6743C45.8535 78.1639 46.0439 77.5749 46.2953 77.1413C46.4514 76.8805 46.7803 76.5174 47.1185 76.5174C47.4911 76.5174 47.6384 76.8202 47.6384 77.1585C47.639 77.6435 47.474 78.3017 47.2664 78.7435ZM50.6789 80.1387C50.5228 80.1387 50.2714 80.1824 50.2714 79.9571L50.7221 77.3223C50.7221 77.1236 50.7132 77.0024 50.5139 76.9154C50.3927 76.8539 50.2543 76.8025 50.2543 76.6463C50.2543 76.4559 50.5577 76.3252 50.6872 76.2648L51.7529 75.9011C52.0386 75.9011 52.0823 76.2477 52.0823 76.4647C52.0823 76.7327 52.0214 77.01 51.9783 77.2791C52.2207 76.654 52.6625 75.9011 53.4255 75.9011C53.7809 75.9011 53.9453 76.1265 53.9453 76.4647C53.9453 76.8019 53.7809 77.3566 53.3651 77.3566C52.9405 77.3566 53.0014 76.9408 52.7412 76.9408C52.1864 76.9408 51.7878 79.1936 51.7015 79.6436C51.6323 79.9731 51.676 80.1381 51.3111 80.1381L50.6789 80.1387ZM58.5194 78.9339L59.3521 73.8388C59.3521 73.6573 59.2309 73.5798 59.0576 73.5798C58.7447 73.5798 57.4022 73.8306 57.4022 74.2292C57.4022 74.3599 57.5317 74.4119 57.6275 74.4634C57.7742 74.5497 57.818 74.6272 57.818 74.8005L57.5406 76.4902C57.2892 76.0744 56.9509 75.9011 56.4488 75.9011C55.0797 75.9011 53.9708 77.2963 53.9708 78.6039C53.9708 79.5141 54.6467 80.2682 55.5481 80.2682C56.4234 80.2682 57.0296 79.6608 57.3419 78.8984L57.2809 79.7312C57.2809 79.9299 57.3241 80.2682 57.5932 80.2682C57.8091 80.2682 58.3461 80.0511 58.5288 79.9725C58.685 79.9045 59.1096 79.7566 59.1096 79.5395C59.1096 79.1859 58.5194 79.4721 58.5194 78.9339ZM56.9693 78.7873C56.8048 79.1072 56.5103 79.523 56.1028 79.523C55.9207 79.523 55.722 79.3935 55.6261 79.2456C55.4872 79.0469 55.4529 78.7949 55.4529 78.5696C55.4529 78.1018 55.6433 77.5045 55.9035 77.1141C56.0857 76.8462 56.3719 76.5422 56.7268 76.5422C57.1857 76.5422 57.3158 76.9237 57.3158 77.314C57.3158 77.773 57.1768 78.3715 56.9693 78.7873ZM60.364 80.0174C60.0612 79.879 59.7146 79.6105 59.7146 79.2379C59.7146 78.9434 59.9482 78.7181 60.2345 78.7181C60.5893 78.7181 60.6757 78.9688 60.7626 79.2551C60.8667 79.6016 61.0921 79.688 61.4398 79.688C61.8035 79.688 62.2276 79.523 62.2276 79.0989C62.2276 78.3792 60.2002 78.5962 60.2002 77.3318C60.2002 76.916 60.4598 76.5079 60.8064 76.2832C61.2133 76.0141 61.6994 75.9017 62.1844 75.9017C62.5913 75.9017 63.016 75.9709 63.3625 76.1791C63.5961 76.3175 63.8386 76.5339 63.8386 76.8373C63.8386 77.1064 63.6133 77.2797 63.3625 77.2797C62.6522 77.2797 63.0934 76.4653 62.2619 76.4653C61.9674 76.4653 61.6208 76.6215 61.6208 76.9681C61.6208 77.7038 63.7268 77.4708 63.7268 78.7435C63.7268 79.2113 63.4323 79.6188 63.0508 79.8619C62.6179 80.1481 62.1152 80.2694 61.5954 80.2694C61.1784 80.2694 60.7372 80.1996 60.364 80.0174ZM71.6081 78.986C71.6081 78.4661 71.9375 76.8373 72.0759 76.2909C72.1363 76.0401 71.9718 75.9017 71.8417 75.9017C71.5644 75.9017 71.1486 76.2311 70.941 76.4216C70.7157 76.0578 70.3094 75.9017 69.8936 75.9017C68.4984 75.9017 67.3109 77.2188 67.3109 78.5968C67.3109 79.4976 67.8307 80.2694 68.793 80.2694C69.5204 80.2694 70.0669 79.7749 70.3868 79.1421L70.3265 79.8364C70.3265 80.0618 70.4383 80.2694 70.6814 80.2694C70.9244 80.2694 71.4786 80.0097 71.7128 79.8962C71.8595 79.8358 72.1457 79.74 72.1457 79.5325C72.1451 79.203 71.6081 79.4721 71.6081 78.986ZM70.1355 78.7435C69.9782 79.0552 69.6759 79.5325 69.2773 79.5325C68.8349 79.5325 68.7226 79.0297 68.7226 78.6743C68.7226 78.1639 68.913 77.5749 69.165 77.1413C69.3199 76.8805 69.6499 76.5174 69.9876 76.5174C70.3608 76.5174 70.5075 76.8202 70.5075 77.1585C70.5075 77.6435 70.3431 78.3017 70.1355 78.7435ZM76.2774 77.8593C76.3123 77.6778 76.3637 77.401 76.3637 77.2277C76.3637 76.9491 76.233 76.7161 75.9385 76.7161C75.1158 76.7161 74.7255 78.3366 74.6043 78.9605L74.4576 79.7324C74.4138 79.9482 74.3789 80.1393 74.2056 80.1393H73.1488C72.9926 80.1393 73.0009 79.966 73.0275 79.8447L73.3824 78.0681C73.4261 77.8599 73.4953 77.4619 73.4953 77.2537C73.4953 76.7338 73.0358 76.9858 73.0358 76.6552C73.0358 76.4659 73.3398 76.3524 73.4782 76.2915C73.6941 76.1874 74.3192 75.9023 74.5445 75.9023C74.8296 75.9023 74.8816 76.266 74.8816 76.4819C74.8816 76.7338 74.8296 76.9763 74.7699 77.2105C75.1513 76.5257 75.7055 75.9017 76.5548 75.9017C77.1787 75.9017 77.7849 76.3086 77.7849 77.0201L77.4301 79.0209C77.4301 79.4461 77.9671 79.2291 77.9671 79.5325C77.9671 79.7578 77.5247 79.9056 77.3609 79.9737C77.0823 80.0866 76.537 80.2694 76.2336 80.2694C75.9911 80.2694 75.9219 80.0523 75.9219 79.8441C75.9219 79.6708 76.0006 79.3071 76.0349 79.1338L76.2774 77.8593ZM83.2946 78.9339L84.1262 73.8388C84.1262 73.6573 84.0049 73.5798 83.8316 73.5798C83.5199 73.5798 82.1762 73.8306 82.1762 74.2292C82.1762 74.3599 82.3069 74.4119 82.4016 74.4634C82.5494 74.5497 82.592 74.6272 82.592 74.8005L82.3158 76.4902C82.0639 76.0744 81.7256 75.9011 81.2229 75.9011C79.8543 75.9011 78.7454 77.2963 78.7454 78.6039C78.7454 79.5141 79.4214 80.2682 80.3221 80.2682C81.1974 80.2682 81.8042 79.6608 82.1159 78.8984L82.0544 79.7312C82.0544 79.9299 82.0982 80.2682 82.3673 80.2682C82.5831 80.2682 83.1201 80.0511 83.3029 79.9725C83.459 79.9045 83.8825 79.7566 83.8825 79.5395C83.8837 79.1859 83.2946 79.4721 83.2946 78.9339ZM81.7433 78.7873C81.5795 79.1072 81.285 79.523 80.8769 79.523C80.6953 79.523 80.4954 79.3935 80.4008 79.2456C80.2624 79.0469 80.2275 78.7949 80.2275 78.5696C80.2275 78.1018 80.4179 77.5045 80.6782 77.1141C80.8597 76.8462 81.146 76.5422 81.5008 76.5422C81.9604 76.5422 82.0899 76.9237 82.0899 77.314C82.0899 77.773 81.9509 78.3715 81.7433 78.7873ZM8.87843 90.0799C8.63595 89.932 8.60933 89.7682 8.54901 89.4991C8.36685 88.7113 8.24561 88.2955 7.82984 87.5758L7.72575 87.3942C8.56616 87.1423 9.44146 86.4746 9.44146 85.5312C9.44146 84.1881 8.00313 84.2662 7.02432 84.2662H4.30319C4.07786 84.2662 3.73957 84.2916 3.73957 84.5862C3.73957 84.6902 3.83479 84.7594 3.91286 84.8115C4.05184 84.9156 4.12932 84.9499 4.12932 85.1326L3.45332 89.2134C3.34923 89.7416 3.38413 89.812 2.97664 90.1065C2.87255 90.1757 2.79448 90.2449 2.79448 90.3661C2.79448 90.6086 3.03696 90.6086 3.21025 90.6086H4.813C5.02118 90.6086 5.30684 90.5991 5.30684 90.3223C5.30684 90.2011 5.22049 90.1491 5.14242 90.0887C5.01231 89.9929 4.92596 89.9409 4.92596 89.7759L5.22049 87.9395L6.19101 87.7928C6.41634 88.2512 6.90131 89.0922 6.90131 89.7161C6.90131 90.184 6.41634 90.0107 6.41634 90.3667C6.41634 90.5217 6.52043 90.5826 6.65055 90.6092H8.52239C8.7217 90.6092 9.03338 90.592 9.03338 90.3147C9.03456 90.1928 8.97365 90.1313 8.87843 90.0799ZM6.98943 86.8649C6.50446 87.1328 5.88052 87.2464 5.33463 87.3061L5.55168 86.0239C5.68121 85.2882 5.65578 84.8204 6.5914 84.8204C7.14616 84.8204 7.73521 85.0019 7.73521 85.6602C7.73462 86.1717 7.43122 86.6307 6.98943 86.8649ZM13.8753 89.3773C13.7541 89.3773 13.5808 89.4985 13.4856 89.5677C13.087 89.8114 12.7233 90.0367 12.2383 90.0367C11.5883 90.0367 11.2069 89.6806 11.1897 89.0307C12.0561 88.9189 14.3177 88.6238 14.3177 87.3848C14.3177 87.0553 14.0841 86.7957 13.815 86.6396C13.4945 86.4491 13.0527 86.3705 12.689 86.3705C11.9355 86.3705 11.2157 86.6224 10.6438 87.1245C10.1151 87.5752 9.7076 88.2506 9.7076 88.9609C9.7076 90.1656 10.7041 90.7375 11.7876 90.7375C12.3595 90.7375 12.9918 90.556 13.4767 90.2697C13.65 90.1656 14.1267 89.8539 14.1267 89.602C14.1273 89.4731 14.0061 89.3773 13.8753 89.3773ZM12.5328 86.9595C12.7925 86.9595 13.0438 87.1157 13.0438 87.4019C13.0438 88.1122 11.7527 88.4067 11.198 88.4416C11.2849 87.8792 11.9089 86.9595 12.5328 86.9595ZM18.5275 89.3518C18.657 89.3518 18.77 89.4464 18.77 89.5854C18.77 89.8545 18.337 90.184 18.1377 90.3141C17.6868 90.5913 17.1678 90.7381 16.6385 90.7381C15.6248 90.7381 14.7412 90.0887 14.7412 89.0052C14.7412 87.558 16.0494 86.3705 17.4617 86.3705C17.8432 86.3705 18.2939 86.4663 18.6144 86.6916C18.8226 86.8383 19.0042 87.0553 19.0042 87.3244C19.0042 87.6444 18.7185 87.8526 18.4234 87.8526C17.6179 87.8526 18.1117 87.0033 17.4529 87.0033C17.0714 87.0033 16.7857 87.3327 16.5953 87.6361C16.3528 88.0176 16.2227 88.5623 16.2227 89.0224C16.2227 89.5423 16.4569 90.0272 17.0371 90.0272C17.8598 90.0278 18.2672 89.3518 18.5275 89.3518ZM22.225 86.3705C21.5059 86.3705 20.8039 86.6047 20.2668 87.0819C19.7724 87.5403 19.4347 88.1991 19.4347 88.884C19.4347 90.1224 20.5696 90.7381 21.6786 90.7381C22.3717 90.7381 23.0997 90.5039 23.6368 90.0544C24.1395 89.6203 24.486 88.9792 24.486 88.3032C24.4866 87.021 23.3771 86.3705 22.225 86.3705ZM21.7223 90.1224C21.1155 90.1224 20.9162 89.6026 20.9162 89.075C20.9162 88.3127 21.2545 86.9867 22.2073 86.9867C22.7881 86.9867 23.0045 87.4812 23.0045 87.9915C23.0045 88.7456 22.6751 90.1224 21.7223 90.1224ZM29.4676 87.1328C29.7361 87.1328 29.9874 87.0116 29.9874 86.717C29.9874 86.5183 29.8313 86.4491 29.6491 86.4491L29.0601 86.4663C28.5751 86.4663 28.0896 86.3705 27.6046 86.3705C26.9375 86.3705 26.2704 86.6047 25.7848 87.0636C25.3259 87.4977 24.9964 88.1909 24.9964 88.8231C24.9964 89.9415 25.8197 90.3915 26.8423 90.3915C26.9807 90.3915 27.1196 90.3661 27.258 90.3661C27.5786 90.3661 27.908 90.5477 27.908 90.8942C27.908 91.1196 27.7347 91.31 27.5443 91.4236C27.3101 91.562 27.0244 91.6051 26.7559 91.6051C26.5395 91.6051 25.9155 91.5448 25.9155 91.2503C25.9155 91.1888 25.9587 91.1196 25.9936 91.0675C26.0107 91.025 26.0367 90.9901 26.0367 90.9463C26.0367 90.7559 25.6293 90.7559 25.4997 90.7559C25.0751 90.7559 24.5381 91.1024 24.5381 91.5531C24.5381 92.2208 26.0977 92.2983 26.5655 92.2983C27.1374 92.2983 27.7613 92.2208 28.2901 91.9866C28.7407 91.7879 29.1742 91.407 29.1742 90.8871C29.1742 90.3324 28.6632 90.0716 28.1694 90.0118C28.9666 89.709 29.4948 88.8509 29.4948 88.0193C29.4948 87.6899 29.3647 87.3599 29.1393 87.1263L29.2174 87.1346H29.4676V87.1328ZM27.7607 89.1785C27.5957 89.4813 27.3704 89.8279 26.9724 89.8279C26.4785 89.8279 26.3827 89.3696 26.3827 88.9709C26.3827 88.3819 26.7033 86.9169 27.4922 86.9169C27.96 86.9169 28.1073 87.4196 28.1073 87.7922C28.1073 88.2683 27.9861 88.7628 27.7607 89.1785ZM33.5732 88.3298C33.6081 88.1471 33.6596 87.8703 33.6596 87.697C33.6596 87.4196 33.5295 87.1854 33.2355 87.1854C32.4117 87.1854 32.0219 88.8059 31.9007 89.4299L31.7534 90.2017C31.7102 90.4187 31.6754 90.6092 31.5021 90.6092H30.4452C30.2891 90.6092 30.2973 90.4359 30.3234 90.3147L30.6788 88.538C30.722 88.3298 30.7912 87.9318 30.7912 87.7236C30.7912 87.2038 30.3316 87.4545 30.3316 87.1251C30.3316 86.9347 30.635 86.8211 30.7734 86.7614C30.9899 86.6573 31.6138 86.3711 31.8392 86.3711C32.1248 86.3711 32.1769 86.7348 32.1769 86.9518C32.1769 87.2038 32.1248 87.4463 32.0645 87.6793C32.446 86.9956 33.0007 86.3705 33.85 86.3705C34.474 86.3705 35.0802 86.778 35.0802 87.4888L34.7247 89.4908C34.7247 89.9149 35.2617 89.699 35.2617 90.0012C35.2617 90.2277 34.8199 90.3744 34.6555 90.4436C34.3782 90.5565 33.8323 90.7381 33.5289 90.7381C33.2864 90.7381 33.2166 90.5211 33.2166 90.3141C33.2166 90.1408 33.2947 89.7759 33.3296 89.6026L33.5732 88.3298ZM36.7432 87.6444C36.7432 87.2552 36.2926 87.4285 36.2926 87.1417C36.2926 86.8909 36.6912 86.7525 36.8734 86.6821C37.1247 86.5704 37.6706 86.3705 37.9474 86.3705C38.1899 86.3705 38.2679 86.5437 38.2679 86.7691C38.2679 86.8306 38.2591 86.9341 38.2425 87.0476L37.7918 89.5334C37.7918 89.8628 38.2597 89.6984 38.2597 90.0107C38.2597 90.2798 37.861 90.3839 37.6706 90.4519C37.4453 90.5477 36.8822 90.7381 36.6397 90.7381C36.4055 90.7381 36.2932 90.5731 36.2932 90.3312L36.7432 87.6444ZM37.6357 85.9121C37.2803 85.9121 36.9165 85.7122 36.9165 85.3136C36.9165 84.8286 37.4015 84.4909 37.8522 84.4909C38.2425 84.4909 38.563 84.6896 38.563 85.1226C38.563 85.5827 38.0692 85.9121 37.6357 85.9121ZM41.3954 86.4746H41.6118C41.8549 86.4746 42.2967 86.3971 42.2967 86.7691C42.2967 87.2197 41.8549 87.1677 41.5338 87.1677H41.2564L40.8838 89.1614C40.8666 89.256 40.8323 89.4039 40.8323 89.5079C40.8323 89.6558 40.9015 89.7504 41.0577 89.7504C41.3173 89.7504 41.5604 89.5423 41.7159 89.5423C41.8803 89.5423 41.9501 89.6806 41.9501 89.8273C41.9501 90.1402 41.4125 90.2869 41.1872 90.3655C40.8229 90.4868 40.0611 90.7375 39.6879 90.7375C39.4537 90.7375 39.3325 90.5122 39.3325 90.2963C39.3325 90.0538 39.4626 89.4459 39.5146 89.1691L39.9133 87.1671H39.8092C39.5927 87.1671 39.2804 87.1937 39.2804 86.882C39.2804 86.5355 39.5661 86.5089 39.8263 86.4746C40.2421 86.4225 40.3894 86.2066 40.5283 85.8335C40.6579 85.4697 40.7188 85.0457 41.2386 85.0457C41.3948 85.0457 41.5852 85.0628 41.5852 85.2616C41.5852 85.3923 41.5332 85.643 41.5071 85.7731L41.3948 86.4397L41.3954 86.4746ZM43.3264 87.6444C43.3264 87.2552 42.8757 87.4285 42.8757 87.1417C42.8757 86.8909 43.2743 86.7525 43.4565 86.6821C43.7078 86.5704 44.2537 86.3705 44.5305 86.3705C44.773 86.3705 44.851 86.5437 44.851 86.7691C44.851 86.8306 44.8422 86.9341 44.825 87.0476L44.3744 89.5334C44.3744 89.8628 44.8422 89.6984 44.8422 90.0107C44.8422 90.2798 44.4435 90.3839 44.2531 90.4519C44.0278 90.5477 43.4647 90.7381 43.2217 90.7381C42.9875 90.7381 42.8751 90.5731 42.8751 90.3312L43.3264 87.6444ZM44.2188 85.9121C43.8634 85.9121 43.4996 85.7122 43.4996 85.3136C43.4996 84.8286 43.9846 84.4909 44.4359 84.4909C44.8256 84.4909 45.1467 84.6896 45.1467 85.1226C45.1462 85.5827 44.6523 85.9121 44.2188 85.9121ZM48.3854 86.3705C47.6662 86.3705 46.9642 86.6047 46.4272 87.0819C45.9333 87.5403 45.595 88.1991 45.595 88.884C45.595 90.1224 46.73 90.7381 47.8389 90.7381C48.5326 90.7381 49.2601 90.5039 49.7977 90.0544C50.3004 89.6203 50.647 88.9792 50.647 88.3032C50.6464 87.021 49.5375 86.3705 48.3854 86.3705ZM47.8827 90.1224C47.2759 90.1224 47.0766 89.6026 47.0766 89.075C47.0766 88.3127 47.4143 86.9867 48.3682 86.9867C48.9484 86.9867 49.1649 87.4812 49.1649 87.9915C49.1649 88.7456 48.8354 90.1224 47.8827 90.1224ZM54.5356 88.3298C54.5705 88.1471 54.6219 87.8703 54.6219 87.697C54.6219 87.4196 54.4918 87.1854 54.1973 87.1854C53.374 87.1854 52.9843 88.8059 52.863 89.4299L52.7152 90.2017C52.672 90.4187 52.6371 90.6092 52.4638 90.6092H51.4069C51.2508 90.6092 51.2597 90.4359 51.2857 90.3147L51.6411 88.538C51.6843 88.3298 51.7535 87.9318 51.7535 87.7236C51.7535 87.2038 51.2946 87.4545 51.2946 87.1251C51.2946 86.9347 51.598 86.8211 51.737 86.7614C51.9534 86.6573 52.5774 86.3711 52.8027 86.3711C53.0884 86.3711 53.1404 86.7348 53.1404 86.9518C53.1404 87.2038 53.0884 87.4463 53.028 87.6793C53.4095 86.9956 53.9642 86.3705 54.8135 86.3705C55.4375 86.3705 56.0437 86.778 56.0437 87.4888L55.6888 89.4908C55.6888 89.9149 56.2258 89.699 56.2258 90.0012C56.2258 90.2277 55.784 90.3744 55.6196 90.4436C55.3423 90.5565 54.7964 90.7381 54.493 90.7381C54.2505 90.7381 54.1813 90.5211 54.1813 90.3141C54.1813 90.1408 54.2594 89.7759 54.2937 89.6026L54.5356 88.3298ZM65.9192 90.0621C65.7111 89.9314 65.7022 89.7504 65.6673 89.5423L65.1569 87.0819L64.4466 84.8026C64.2639 84.3697 64.2124 84.1349 63.7002 84.1349C63.2933 84.1349 63.2241 84.2999 62.9816 84.5944L61.8982 86.0848L60.0618 89.369C59.8885 89.7238 59.8714 89.8888 59.507 90.0887C59.3763 90.1579 59.2989 90.2354 59.2989 90.3833C59.2989 90.6512 59.3935 90.5914 59.4804 90.6086H60.9531C61.0394 90.6086 61.1784 90.6778 61.1784 90.3312C61.1784 90.0704 60.7893 90.1313 60.7893 89.793C60.7893 89.5594 61.1967 88.7971 61.344 88.528H63.8481L63.9267 89.0052C63.9522 89.2134 64.0042 89.5423 64.0042 89.7327C64.0042 89.9752 63.9693 89.9923 63.7523 90.0887C63.6227 90.1491 63.5364 90.2088 63.5364 90.3567C63.5364 90.582 63.718 90.6086 63.9096 90.6086H65.5555C65.7714 90.6086 66.1008 90.6257 66.1008 90.3141C66.1008 90.1834 66.0233 90.1408 65.9192 90.0621ZM61.6906 87.8443L63.1378 85.4869C63.4495 86.2409 63.6227 87.0476 63.7351 87.8443H61.6906ZM67.0341 90.4874C66.7313 90.349 66.3847 90.0799 66.3847 89.7079C66.3847 89.4121 66.6183 89.1868 66.9045 89.1868C67.2594 89.1868 67.3457 89.4388 67.4327 89.7238C67.5368 90.0704 67.7621 90.1579 68.1087 90.1579C68.4736 90.1579 68.8976 89.9929 68.8976 89.5677C68.8976 88.8491 66.8702 89.065 66.8702 87.8005C66.8702 87.3848 67.1299 86.9779 67.4765 86.7531C67.8833 86.484 68.3683 86.3711 68.8545 86.3711C69.2614 86.3711 69.686 86.4403 70.0326 86.6484C70.2662 86.7868 70.5087 87.0045 70.5087 87.3067C70.5087 87.5758 70.2833 87.7491 70.0326 87.7491C69.3223 87.7491 69.7635 86.9347 68.9319 86.9347C68.6374 86.9347 68.2908 87.0908 68.2908 87.4374C68.2908 88.1743 70.3969 87.9401 70.3969 89.214C70.3969 89.6818 70.1024 90.0893 69.7209 90.3324C69.288 90.6175 68.7853 90.7393 68.2642 90.7393C67.8485 90.7381 67.4073 90.6689 67.0341 90.4874ZM71.5377 90.4874C71.2337 90.349 70.8872 90.0799 70.8872 89.7079C70.8872 89.4121 71.1214 89.1868 71.4082 89.1868C71.7631 89.1868 71.8494 89.4388 71.9364 89.7238C72.0405 90.0704 72.2658 90.1579 72.6124 90.1579C72.9761 90.1579 73.4013 89.9929 73.4013 89.5677C73.4013 88.8491 71.3727 89.065 71.3727 87.8005C71.3727 87.3848 71.6336 86.9779 71.9801 86.7531C72.387 86.484 72.872 86.3711 73.357 86.3711C73.7644 86.3711 74.1885 86.4403 74.5351 86.6484C74.7693 86.7868 75.0123 87.0045 75.0123 87.3067C75.0123 87.5758 74.787 87.7491 74.5351 87.7491C73.8248 87.7491 74.2672 86.9347 73.4356 86.9347C73.1411 86.9347 72.7945 87.0908 72.7945 87.4374C72.7945 88.1743 74.9006 87.9401 74.9006 89.214C74.9006 89.6818 74.606 90.0893 74.2234 90.3324C73.7905 90.6175 73.2878 90.7393 72.7679 90.7393C72.3521 90.7381 71.9097 90.6689 71.5377 90.4874ZM78.3551 86.3705C77.6353 86.3705 76.9333 86.6047 76.3963 87.0819C75.903 87.5403 75.5647 88.1991 75.5647 88.884C75.5647 90.1224 76.7003 90.7381 77.8092 90.7381C78.5023 90.7381 79.2298 90.5039 79.7674 90.0544C80.2701 89.6203 80.6178 88.9792 80.6178 88.3032C80.6172 87.021 79.5071 86.3705 78.3551 86.3705ZM77.8529 90.1224C77.2467 90.1224 77.0468 89.6026 77.0468 89.075C77.0468 88.3127 77.3839 86.9867 78.3385 86.9867C78.9181 86.9867 79.1357 87.4812 79.1357 87.9915C79.1351 88.7456 78.8057 90.1224 77.8529 90.1224ZM84.8784 89.3518C85.0091 89.3518 85.1209 89.4464 85.1209 89.5854C85.1209 89.8545 84.688 90.184 84.4881 90.3141C84.0375 90.5912 83.519 90.7379 82.99 90.7381C81.9757 90.7381 81.0922 90.0887 81.0922 89.0052C81.0922 87.558 82.401 86.3705 83.8127 86.3705C84.1942 86.3705 84.6442 86.4663 84.9654 86.6916C85.1736 86.8383 85.3557 87.0553 85.3557 87.3244C85.3557 87.6444 85.0695 87.8526 84.7749 87.8526C83.9688 87.8526 84.4633 87.0033 83.8044 87.0033C83.4229 87.0033 83.1367 87.3327 82.9463 87.6361C82.7038 88.0176 82.5743 88.5623 82.5743 89.0224C82.5743 89.5423 82.8079 90.0272 83.3886 90.0272C84.2119 90.0278 84.6182 89.3518 84.8784 89.3518ZM86.4617 87.6444C86.4617 87.2552 86.011 87.4285 86.011 87.1417C86.011 86.8909 86.4096 86.7525 86.5906 86.6821C86.8425 86.5704 87.389 86.3705 87.6658 86.3705C87.9083 86.3705 87.9858 86.5437 87.9858 86.7691C87.9858 86.8306 87.9775 86.9341 87.9603 87.0476L87.5097 89.5334C87.5097 89.8628 87.9775 89.6984 87.9775 90.0107C87.9775 90.2798 87.5789 90.3839 87.3884 90.4519C87.1631 90.5477 86.5995 90.7381 86.357 90.7381C86.1228 90.7381 86.0104 90.5731 86.0104 90.3312L86.4617 87.6444ZM87.3547 85.9121C86.9987 85.9121 86.6349 85.7122 86.6349 85.3136C86.6349 84.8286 87.1199 84.4909 87.5706 84.4909C87.9609 84.4909 88.2809 84.6896 88.2809 85.1226C88.2815 85.5827 87.7882 85.9121 87.3547 85.9121ZM93.0022 89.4559C93.0022 88.9361 93.3316 87.3061 93.47 86.7608C93.5315 86.5089 93.3659 86.3705 93.2364 86.3705C92.959 86.3705 92.5433 86.7011 92.3357 86.8915C92.1103 86.5266 91.7029 86.3705 91.2871 86.3705C89.8919 86.3705 88.7043 87.6887 88.7043 89.0656C88.7043 89.9675 89.2254 90.7381 90.1864 90.7381C90.9139 90.7381 91.4604 90.2449 91.7803 89.612L91.72 90.3052C91.72 90.5305 91.8318 90.7381 92.0749 90.7381C92.3179 90.7381 92.8733 90.4785 93.1063 90.3661C93.2541 90.3046 93.5392 90.2088 93.5392 90.0012C93.5392 89.6718 93.0022 89.9409 93.0022 89.4559ZM91.5296 89.2134C91.3734 89.5251 91.07 90.0012 90.6714 90.0012C90.2302 90.0012 90.1167 89.4985 90.1167 89.1442C90.1167 88.6327 90.3071 88.0436 90.559 87.6101C90.7152 87.3504 91.044 86.9861 91.3817 86.9861C91.7549 86.9861 91.9027 87.2901 91.9027 87.6272C91.9027 88.1122 91.7371 88.771 91.5296 89.2134ZM96.6584 86.4746H96.8742C97.1167 86.4746 97.5591 86.3971 97.5591 86.7691C97.5591 87.2197 97.1167 87.1677 96.7968 87.1677H96.5194L96.1462 89.1614C96.129 89.256 96.0941 89.4039 96.0941 89.5079C96.0941 89.6558 96.1633 89.7504 96.3195 89.7504C96.5791 89.7504 96.8222 89.5423 96.9777 89.5423C97.1427 89.5423 97.2119 89.6806 97.2119 89.8273C97.2119 90.1402 96.6749 90.2869 96.4496 90.3655C96.0847 90.4868 95.3223 90.7375 94.9503 90.7375C94.7161 90.7375 94.5943 90.5122 94.5943 90.2963C94.5943 90.0538 94.725 89.4459 94.7771 89.1691L95.1757 87.1671H95.0716C94.8545 87.1671 94.5423 87.1937 94.5423 86.882C94.5423 86.5355 94.8285 86.5089 95.0887 86.4746C95.5045 86.4225 95.6512 86.2066 95.7902 85.8335C95.9209 85.4697 95.9806 85.0457 96.5016 85.0457C96.6578 85.0457 96.8482 85.0628 96.8482 85.2616C96.8482 85.3923 96.7962 85.643 96.7695 85.7731L96.6578 86.4397V86.4746H96.6584ZM98.5894 87.6444C98.5894 87.2552 98.1387 87.4285 98.1387 87.1417C98.1387 86.8909 98.5373 86.7525 98.7183 86.6821C98.9702 86.5704 99.5155 86.3705 99.7923 86.3705C100.035 86.3705 100.113 86.5437 100.113 86.7691C100.113 86.8306 100.104 86.9341 100.087 87.0476L99.6362 89.5334C99.6362 89.8628 100.104 89.6984 100.104 90.0107C100.104 90.2798 99.7054 90.3839 99.5149 90.4519C99.2896 90.5477 98.7272 90.7381 98.4847 90.7381C98.2505 90.7381 98.1381 90.5731 98.1381 90.3312L98.5894 87.6444ZM99.4812 85.9121C99.1264 85.9121 98.7626 85.7122 98.7626 85.3136C98.7626 84.8286 99.2476 84.4909 99.6983 84.4909C100.087 84.4909 100.409 84.6896 100.409 85.1226C100.409 85.5827 99.9141 85.9121 99.4812 85.9121ZM103.648 86.3705C102.928 86.3705 102.227 86.6047 101.69 87.0819C101.195 87.5403 100.858 88.1991 100.858 88.884C100.858 90.1224 101.992 90.7381 103.101 90.7381C103.794 90.7381 104.523 90.5039 105.06 90.0544C105.563 89.6203 105.909 88.9792 105.909 88.3032C105.909 87.021 104.8 86.3705 103.648 86.3705ZM103.145 90.1224C102.539 90.1224 102.339 89.6026 102.339 89.075C102.339 88.3127 102.677 86.9867 103.631 86.9867C104.211 86.9867 104.428 87.4812 104.428 87.9915C104.427 88.7456 104.098 90.1224 103.145 90.1224ZM109.799 88.3298C109.833 88.1471 109.885 87.8703 109.885 87.697C109.885 87.4196 109.754 87.1854 109.46 87.1854C108.637 87.1854 108.247 88.8059 108.125 89.4299L107.978 90.2017C107.935 90.4187 107.9 90.6092 107.727 90.6092H106.67C106.514 90.6092 106.522 90.4359 106.549 90.3147L106.904 88.538C106.947 88.3298 107.017 87.9318 107.017 87.7236C107.017 87.2038 106.557 87.4545 106.557 87.1251C106.557 86.9347 106.861 86.8211 106.999 86.7614C107.215 86.6573 107.84 86.3711 108.066 86.3711C108.351 86.3711 108.403 86.7348 108.403 86.9518C108.403 87.2038 108.351 87.4463 108.291 87.6793C108.671 86.9956 109.227 86.3705 110.076 86.3705C110.7 86.3705 111.306 86.778 111.306 87.4888L110.951 89.4908C110.951 89.9149 111.488 89.699 111.488 90.0012C111.488 90.2277 111.046 90.3744 110.882 90.4436C110.603 90.5565 110.058 90.7381 109.755 90.7381C109.512 90.7381 109.443 90.5211 109.443 90.3141C109.443 90.1408 109.522 89.7759 109.556 89.6026L109.799 88.3298ZM1.85294 94.5185H112.324V94.1583H1.85294V94.5185Z" fill="#D1CFCF"/>
<path id="Vector_2" fill-rule="evenodd" clip-rule="evenodd" d="M104.513 26.4471C98.5864 20.4684 91.6715 19.4807 83.6642 19.4807H77.4833L77.5235 27.4584H77.4774V61.9572H88.6032V48.4917H100.769C101.319 59.2911 91.1268 68.3717 88.6836 72.4271L88.7043 83.9415C96.3017 80.4013 111.433 62.3777 112.154 46.828C112.498 39.453 109.816 31.7503 104.513 26.4471ZM88.6032 38.9255V29.3634C96.7719 30.6722 98.461 35.7726 99.6775 38.9255H88.6032ZM36.383 62.0347L36.3771 19.5588H30.1962C22.1895 19.5588 15.2752 20.5465 9.34799 26.5257C4.04472 31.8278 1.36321 39.5305 1.70506 46.9055C2.42718 62.4552 17.5587 80.4799 25.1549 84.019L25.1762 72.5046C22.7324 68.4492 12.5411 59.3697 13.0905 48.5692H25.2566V62.0347H36.383ZM14.1829 39.0029C15.3988 35.8501 17.0885 30.7497 25.2572 29.4414V39.0029H14.1829Z" fill="#D1CFCF"/>
</g>
</g>
<defs>
<clipPath id="clip0_0_130">
<rect width="114" height="114" fill="white"/>
</clipPath>
</defs>
</svg>
