<svg width="41" height="41" viewBox="0 0 41 41" fill="none" xmlns="http://www.w3.org/2000/svg">
<g id="mingcute:arrow-up-line" clip-path="url(#clip0_0_71)">
<g id="Group">
<path id="Vector" d="M34.7885 21.7078C35.1088 21.3875 35.2887 20.953 35.2887 20.5001C35.2887 20.0471 35.1088 19.6126 34.7885 19.2923L25.1244 9.62822C24.9669 9.46506 24.7784 9.33492 24.5699 9.24538C24.3615 9.15585 24.1373 9.10873 23.9105 9.10675C23.6837 9.10478 23.4587 9.14801 23.2488 9.2339C23.0388 9.3198 22.8481 9.44665 22.6877 9.60705C22.5273 9.76745 22.4004 9.95819 22.3145 10.1681C22.2286 10.3781 22.1854 10.603 22.1874 10.8299C22.1894 11.0567 22.2365 11.2809 22.326 11.4893C22.4156 11.6977 22.5457 11.8862 22.7089 12.0438L29.4568 18.7917H6.83332C6.38025 18.7917 5.94572 18.9717 5.62535 19.2921C5.30497 19.6125 5.12499 20.047 5.12499 20.5001C5.12499 20.9531 5.30497 21.3877 5.62535 21.708C5.94572 22.0284 6.38025 22.2084 6.83332 22.2084H29.4568L22.7089 28.9563C22.3977 29.2785 22.2255 29.71 22.2294 30.158C22.2333 30.6059 22.4129 31.0343 22.7297 31.3511C23.0464 31.6678 23.4749 31.8475 23.9228 31.8514C24.3707 31.8553 24.8023 31.6831 25.1244 31.3719L34.7885 21.7078Z" fill="white"/>
</g>
</g>
<defs>
<clipPath id="clip0_0_71">
<rect width="41" height="41" fill="white" transform="matrix(0 1 -1 0 41 0)"/>
</clipPath>
</defs>
</svg>
